<svg width="640" height="480" xmlns="http://www.w3.org/2000/svg" xmlns:svg="http://www.w3.org/2000/svg">
 <g>
  <title>Layer 1</title>
  <g stroke="null" id="main_text" fill="#8BE9FD" transform="translate(-3.1051218509674072,111.05390930175781) scale(2.8228371143341064) ">
   <path fill="#8BE9FD" d="m23.06962,102.37654c0.33444,0 0.62111,0.23889 0.62111,0.62111l0,7.40556c0,6.83222 -3.58333,9.93778 -9.60333,9.93778l-2.67556,0c-6.02,0 -9.60333,-3.10556 -9.60333,-9.93778l0,-14.04667c0,-6.83222 3.58333,-9.93778 9.60333,-9.93778l2.67556,0c5.82889,0 9.31667,2.86667 9.60333,9.46c0,0.43 -0.28667,0.62111 -0.62111,0.62111l-0.47778,0c-0.38222,0 -0.62111,-0.19111 -0.62111,-0.62111c-0.19111,-5.35111 -2.48444,-7.78778 -7.88333,-7.78778l-2.67556,0c-5.59,0 -7.88333,2.58 -7.88333,8.26556l0,14.04667c0,5.63778 2.29333,8.26556 7.88333,8.26556l2.67556,0c5.59,0 7.88333,-2.62778 7.88333,-8.26556l0,-6.35444l-5.82889,0c-0.33444,0 -0.62111,-0.23889 -0.62111,-0.62111l0,-0.43c0,-0.38222 0.28667,-0.62111 0.62111,-0.62111l6.92778,0zm6.73667,-15.00222c0,-0.47778 0.23889,-0.71667 0.71667,-0.71667s0.71667,0.23889 0.71667,0.71667l0,0.38222c0,0.47778 -0.23889,0.71667 -0.71667,0.71667s-0.71667,-0.23889 -0.71667,-0.71667l0,-0.38222zm-0.14333,9.55556c0,-0.47778 0.23889,-0.71667 0.71667,-0.71667l0.19111,0c0.47778,0 0.71667,0.23889 0.71667,0.71667l0,22.45556c0,0.47778 -0.23889,0.71667 -0.71667,0.71667l-0.19111,0c-0.47778,0 -0.71667,-0.23889 -0.71667,-0.71667l0,-22.45556zm18.20333,-0.90778c4.92111,0 8.50444,2.91444 8.50444,8.69556l0,6.78444c0,5.68556 -3.58333,8.83889 -8.50444,8.83889l-1.81556,0c-3.77444,0 -5.92444,-1.48111 -6.92778,-4.20444l0,12.80444c0,0.47778 -0.19111,0.71667 -0.71667,0.71667l-0.19111,0c-0.47778,0 -0.71667,-0.23889 -0.71667,-0.71667l0,-32.01111c0,-0.47778 0.23889,-0.71667 0.71667,-0.71667l0.19111,0c0.52556,0 0.71667,0.23889 0.71667,0.71667l0,3.01c1.00333,-2.72333 3.15333,-3.91778 6.92778,-3.91778l1.81556,0zm6.83222,15.57556l0,-6.54556c0,-4.92111 -2.38889,-7.35778 -6.88,-7.35778l-1.76778,0c-4.49111,0 -6.92778,2.43667 -6.92778,7.35778l0,6.54556c0,4.53889 2.43667,7.07111 6.92778,7.07111l1.76778,0c4.49111,0 6.88,-2.53222 6.88,-7.07111zm16.38778,-15.57556c5.73333,0 7.69222,2.77111 7.69222,8.45667l0,14.90667c0,0.47778 -0.23889,0.71667 -0.71667,0.71667l-0.23889,0c-0.47778,0 -0.71667,-0.23889 -0.71667,-0.71667l0,-14.57222c0,-4.63444 -0.86,-7.11889 -5.68556,-7.11889l-0.81222,0c-4.34778,0 -6.78444,2.77111 -7.59667,4.15667l0,17.53444c0,0.47778 -0.23889,0.71667 -0.71667,0.71667l-0.19111,0c-0.47778,0 -0.71667,-0.23889 -0.71667,-0.71667l0,-32.01111c0,-0.47778 0.23889,-0.71667 0.71667,-0.71667l0.19111,0c0.47778,0 0.71667,0.23889 0.71667,0.71667l0,12.75667c2.05444,-3.01 4.92111,-4.10889 7.69222,-4.10889l0.38222,0zm30.76889,0.19111c0.52556,0 0.57333,0.38222 0.43,0.71667l-12.47,31.91555c-0.28667,0.66889 -0.66889,0.81222 -1.00333,0.81222l-0.23889,0c-0.57333,0 -0.66889,-0.38222 -0.47778,-0.86l3.67889,-9.31667l-8.88667,-22.55111c-0.14333,-0.33444 -0.09556,-0.71667 0.43,-0.71667l0.47778,0c0.47778,0 0.52556,0.19111 0.76444,0.76444l8.07444,20.30556l7.97889,-20.30556c0.23889,-0.57333 0.23889,-0.76444 0.66889,-0.76444l0.57333,0zm29.47889,5.63778c5.16,1.38556 10.08111,3.01 10.08111,8.69556c0,6.78444 -3.58333,9.79444 -9.60333,9.79444l-2.19778,0c-5.82889,0 -9.31667,-2.86667 -9.60333,-9.31667c0,-0.43 0.28667,-0.62111 0.62111,-0.62111l0.47778,0c0.38222,0 0.62111,0.19111 0.62111,0.62111c0.19111,5.20778 2.53222,7.64444 7.88333,7.64444l2.19778,0c5.59,0 7.88333,-2.48444 7.88333,-8.12222c0,-5.01667 -4.34778,-5.82889 -8.26556,-6.88l-1.72,-0.47778c-5.20778,-1.38556 -9.22111,-2.24556 -9.22111,-8.31333c0,-6.49778 3.77444,-8.45667 9.55556,-8.45667l1.33778,0c5.73333,0 9.03,2.86667 9.26889,9.17333c0,0.43 -0.28667,0.62111 -0.62111,0.62111l-0.47778,0c-0.38222,0 -0.62111,-0.19111 -0.62111,-0.62111c-0.19111,-5.16 -2.24556,-7.50111 -7.54889,-7.50111l-1.33778,0c-5.35111,0 -7.83556,1.38556 -7.83556,6.78444s3.67889,5.54222 7.40556,6.49778l1.72,0.47778zm24.55778,-5.82889c5.73333,0 7.69222,2.77111 7.69222,8.45667l0,14.90667c0,0.47778 -0.23889,0.71667 -0.71667,0.71667l-0.23889,0c-0.47778,0 -0.71667,-0.23889 -0.71667,-0.71667l0,-14.57222c0,-4.63444 -0.86,-7.11889 -5.68556,-7.11889l-0.81222,0c-4.34778,0 -6.78444,2.77111 -7.59667,4.15667l0,17.53444c0,0.47778 -0.23889,0.71667 -0.71667,0.71667l-0.19111,0c-0.47778,0 -0.71667,-0.23889 -0.71667,-0.71667l0,-32.01111c0,-0.47778 0.23889,-0.71667 0.71667,-0.71667l0.19111,0c0.47778,0 0.71667,0.23889 0.71667,0.71667l0,12.75667c2.05444,-3.01 4.92111,-4.10889 7.69222,-4.10889l0.38222,0zm31.05555,23.65c0.04778,0.19111 0.09556,0.43 -0.14333,0.43l-0.86,0c-0.52556,0 -0.76444,-0.47778 -0.76444,-1.14667l0,-3.10556c-1.57667,2.77111 -3.96556,4.49111 -7.69222,4.49111l-2.38889,0c-4.25222,0 -6.73667,-2.34111 -6.73667,-7.02333c0,-4.77778 2.77111,-6.88 6.64111,-6.88l10.17667,0l0,-1.38556c0,-5.73333 -1.29,-7.35778 -6.40222,-7.35778l-0.81222,0c-2.58,0 -4.25222,0.33444 -6.06778,1.33778c-0.38222,0.19111 -0.76444,0.33444 -0.90778,0l-0.38222,-0.66889c-0.09556,-0.28667 -0.09556,-0.43 0.38222,-0.71667c1.95889,-1.24222 4.34778,-1.62444 6.97556,-1.62444l0.81222,0c5.92444,0 8.07444,2.77111 8.07444,8.88667l0,14.04667c0,0.23889 0.04778,0.52556 0.09556,0.71667zm-9.93778,-1.00333c4.10889,0 7.11889,-2.38889 8.17,-6.06778l0,-4.49111l-10.08111,0c-3.29667,0 -5.06444,1.24222 -5.06444,5.20778s1.76778,5.35111 5.06444,5.35111l1.91111,0zm28.52333,-20.92667c-0.19111,0.38222 -0.47778,0.47778 -0.86,0.33444c-0.66889,-0.23889 -1.38556,-0.38222 -2.43667,-0.38222l-0.52556,0c-4.34778,0 -6.78444,2.77111 -7.59667,4.15667l0,17.53444c0,0.47778 -0.23889,0.71667 -0.71667,0.71667l-0.19111,0c-0.47778,0 -0.71667,-0.23889 -0.71667,-0.71667l0,-22.45556c0,-0.47778 0.23889,-0.71667 0.71667,-0.71667l0.19111,0c0.47778,0 0.71667,0.23889 0.71667,0.71667l0,3.20111c1.95889,-2.86667 4.77778,-4.10889 8.07444,-4.10889c0.95556,0 2.05444,0.09556 3.01,0.33444c0.43,0.14333 0.57333,0.43 0.43,0.81222l-0.09556,0.57333zm13.23444,-1.72c4.01333,0 8.36111,3.01 8.36111,8.64778l0,2.72333c0,0.90778 -0.62111,1.48111 -1.57667,1.48111l-15.05,0l0,3.01c0,4.25222 2.43667,6.78444 6.88,6.78444l1.38556,0c3.53556,0 4.49111,-1.62444 6.11556,-3.53556c0.33444,-0.38222 0.47778,-0.52556 0.95556,-0.19111l0.33444,0.23889c0.47778,0.33444 0.38222,0.62111 0.09556,1.00333c-1.72,2.10222 -3.44,4.15667 -7.50111,4.15667l-1.38556,0c-4.96889,0 -8.6,-2.96222 -8.6,-8.36111l0,-7.26222c0,-5.78111 3.63111,-8.69556 8.6,-8.69556l1.38556,0zm6.64111,11.18l0,-2.15c0,-4.92111 -2.86667,-7.35778 -6.64111,-7.35778l-1.38556,0c-4.44333,0 -6.88,2.43667 -6.88,7.31l0,2.19778l14.90667,0z" id="svg_1"/>
  </g>
  <g stroke="null" id="SvgjsG1375" fill="#bd93f9" transform="translate(77,15) scale(1.380555510520935) ">
   <polyline stroke="null" points="170.5442657470703,-0.7243461012840271 231.2109375,59.942321836948395 216.0442657470703,75.10898977518082 170.5442657470703,29.608987867832184 125.04426574707031,75.10898977518082 109.87760162353516,59.942321836948395 170.5442657470703,-0.7243461012840271 " id="svg_2"/>
   <polyline stroke="null" points="200.87759399414062,90.27565389871597 185.7109375,105.44231802225113 170.5442657470703,90.27565389871597 155.37760162353516,105.44231802225113 140.21092987060547,90.27565389871597 170.5442657470703,59.942321836948395 200.87759399414062,90.27565389871597 " id="svg_3"/>
   <polyline stroke="null" points="170.5442657470703,150.94232565164566 185.7109375,135.77565389871597 200.87759399414062,150.94232565164566 170.5442657470703,181.27565389871597 140.21092987060547,150.94232565164566 155.37760162353516,135.77565389871597 170.5442657470703,150.94232565164566 " id="svg_4"/>
   <polyline stroke="null" points="231.2109375,181.27565389871597 170.5442657470703,241.94232565164566 109.87760162353516,181.27565389871597 125.04426574707031,166.10898214578629 170.5442657470703,211.60898214578629 216.0442657470703,166.10898214578629 231.2109375,181.27565389871597 " id="svg_5"/>
   <path stroke="null" d="m276.71093,120.60899l-30.33333,-30.33333l-30.33333,30.33333l30.33333,30.33333l30.33333,-30.33333m-91,0l60.66667,-60.66667l60.66667,60.66667l-60.66667,60.66667l-60.66667,-60.66667" id="svg_6"/>
   <path stroke="null" d="m125.04427,120.60899l-30.33333,-30.33333l-30.33333,30.33333l30.33333,30.33333l30.33333,-30.33333m-91,0l60.66667,-60.66667l60.66667,60.66667l-60.66667,60.66667l-60.66667,-60.66667" id="svg_7"/>
  </g>
 </g>
</svg>