<svg width="266" height="190" xmlns="http://www.w3.org/2000/svg"><defs id="SvgjsDefs1373"></defs>

<g id="main_text" rel="mainfill" name="main_text" feature="main_text" xmlns:name="mainText_mainfill" groupname="main_text" fill="#8BE9FD" transform="translate(-3.1051219520135995, 111.0539105080795) scale(2.8228371592606183)"><path d="M10 16.58 c0.14 0 0.26 0.1 0.26 0.26 l0 3.1 c0 2.86 -1.5 4.16 -4.02 4.16 l-1.12 0 c-2.52 0 -4.02 -1.3 -4.02 -4.16 l0 -5.88 c0 -2.86 1.5 -4.16 4.02 -4.16 l1.12 0 c2.44 0 3.9 1.2 4.02 3.96 c0 0.18 -0.12 0.26 -0.26 0.26 l-0.2 0 c-0.16 0 -0.26 -0.08 -0.26 -0.26 c-0.08 -2.24 -1.04 -3.26 -3.3 -3.26 l-1.12 0 c-2.34 0 -3.3 1.08 -3.3 3.46 l0 5.88 c0 2.36 0.96 3.46 3.3 3.46 l1.12 0 c2.34 0 3.3 -1.1 3.3 -3.46 l0 -2.66 l-2.44 0 c-0.14 0 -0.26 -0.1 -0.26 -0.26 l0 -0.18 c0 -0.16 0.12 -0.26 0.26 -0.26 l2.9 0 z M12.82 10.3 c0 -0.2 0.1 -0.3 0.3 -0.3 s0.3 0.1 0.3 0.3 l0 0.16 c0 0.2 -0.1 0.3 -0.3 0.3 s-0.3 -0.1 -0.3 -0.3 l0 -0.16 z M12.76 14.3 c0 -0.2 0.1 -0.3 0.3 -0.3 l0.08 0 c0.2 0 0.3 0.1 0.3 0.3 l0 9.4 c0 0.2 -0.1 0.3 -0.3 0.3 l-0.08 0 c-0.2 0 -0.3 -0.1 -0.3 -0.3 l0 -9.4 z M20.38 13.92 c2.06 0 3.56 1.22 3.56 3.64 l0 2.84 c0 2.38 -1.5 3.7 -3.56 3.7 l-0.76 0 c-1.58 0 -2.48 -0.62 -2.9 -1.76 l0 5.36 c0 0.2 -0.08 0.3 -0.3 0.3 l-0.08 0 c-0.2 0 -0.3 -0.1 -0.3 -0.3 l0 -13.4 c0 -0.2 0.1 -0.3 0.3 -0.3 l0.08 0 c0.22 0 0.3 0.1 0.3 0.3 l0 1.26 c0.42 -1.14 1.32 -1.64 2.9 -1.64 l0.76 0 z M23.240000000000002 20.44 l0 -2.74 c0 -2.06 -1 -3.08 -2.88 -3.08 l-0.74 0 c-1.88 0 -2.9 1.02 -2.9 3.08 l0 2.74 c0 1.9 1.02 2.96 2.9 2.96 l0.74 0 c1.88 0 2.88 -1.06 2.88 -2.96 z M30.1 13.92 c2.4 0 3.22 1.16 3.22 3.54 l0 6.24 c0 0.2 -0.1 0.3 -0.3 0.3 l-0.1 0 c-0.2 0 -0.3 -0.1 -0.3 -0.3 l0 -6.1 c0 -1.94 -0.36 -2.98 -2.38 -2.98 l-0.34 0 c-1.82 0 -2.84 1.16 -3.18 1.74 l0 7.34 c0 0.2 -0.1 0.3 -0.3 0.3 l-0.08 0 c-0.2 0 -0.3 -0.1 -0.3 -0.3 l0 -13.4 c0 -0.2 0.1 -0.3 0.3 -0.3 l0.08 0 c0.2 0 0.3 0.1 0.3 0.3 l0 5.34 c0.86 -1.26 2.06 -1.72 3.22 -1.72 l0.16 0 z  M42.98 14 c0.22 0 0.24 0.16 0.18 0.3 l-5.22 13.36 c-0.12 0.28 -0.28 0.34 -0.42 0.34 l-0.1 0 c-0.24 0 -0.28 -0.16 -0.2 -0.36 l1.54 -3.9 l-3.72 -9.44 c-0.06 -0.14 -0.04 -0.3 0.18 -0.3 l0.2 0 c0.2 0 0.22 0.08 0.32 0.32 l3.38 8.5 l3.34 -8.5 c0.1 -0.24 0.1 -0.32 0.28 -0.32 l0.24 0 z  M55.31999999999999 16.36 c2.16 0.58 4.22 1.26 4.22 3.64 c0 2.84 -1.5 4.1 -4.02 4.1 l-0.92 0 c-2.44 0 -3.9 -1.2 -4.02 -3.9 c0 -0.18 0.12 -0.26 0.26 -0.26 l0.2 0 c0.16 0 0.26 0.08 0.26 0.26 c0.08 2.18 1.06 3.2 3.3 3.2 l0.92 0 c2.34 0 3.3 -1.04 3.3 -3.4 c0 -2.1 -1.82 -2.44 -3.46 -2.88 l-0.72 -0.2 c-2.18 -0.58 -3.86 -0.94 -3.86 -3.48 c0 -2.72 1.58 -3.54 4 -3.54 l0.56 0 c2.4 0 3.78 1.2 3.88 3.84 c0 0.18 -0.12 0.26 -0.26 0.26 l-0.2 0 c-0.16 0 -0.26 -0.08 -0.26 -0.26 c-0.08 -2.16 -0.94 -3.14 -3.16 -3.14 l-0.56 0 c-2.24 0 -3.28 0.58 -3.28 2.84 s1.54 2.32 3.1 2.72 z M65.6 13.92 c2.4 0 3.22 1.16 3.22 3.54 l0 6.24 c0 0.2 -0.1 0.3 -0.3 0.3 l-0.1 0 c-0.2 0 -0.3 -0.1 -0.3 -0.3 l0 -6.1 c0 -1.94 -0.36 -2.98 -2.38 -2.98 l-0.34 0 c-1.82 0 -2.84 1.16 -3.18 1.74 l0 7.34 c0 0.2 -0.1 0.3 -0.3 0.3 l-0.08 0 c-0.2 0 -0.3 -0.1 -0.3 -0.3 l0 -13.4 c0 -0.2 0.1 -0.3 0.3 -0.3 l0.08 0 c0.2 0 0.3 0.1 0.3 0.3 l0 5.34 c0.86 -1.26 2.06 -1.72 3.22 -1.72 l0.16 0 z  M78.59999999999998 23.82 c0.02 0.08 0.04 0.18 -0.06 0.18 l-0.36 0 c-0.22 0 -0.32 -0.2 -0.32 -0.48 l0 -1.3 c-0.66 1.16 -1.66 1.88 -3.22 1.88 l-1 0 c-1.78 0 -2.82 -0.98 -2.82 -2.94 c0 -2 1.16 -2.88 2.78 -2.88 l4.26 0 l0 -0.58 c0 -2.4 -0.54 -3.08 -2.68 -3.08 l-0.34 0 c-1.08 0 -1.78 0.14 -2.54 0.56 c-0.16 0.08 -0.32 0.14 -0.38 0 l-0.16 -0.28 c-0.04 -0.12 -0.04 -0.18 0.16 -0.3 c0.82 -0.52 1.82 -0.68 2.92 -0.68 l0.34 0 c2.48 0 3.38 1.16 3.38 3.72 l0 5.88 c0 0.1 0.02 0.22 0.04 0.3 z M74.43999999999998 23.4 c1.72 0 2.98 -1 3.42 -2.54 l0 -1.88 l-4.22 0 c-1.38 0 -2.12 0.52 -2.12 2.18 s0.74 2.24 2.12 2.24 l0.8 0 z M86.37999999999998 14.64 c-0.08 0.16 -0.2 0.2 -0.36 0.14 c-0.28 -0.1 -0.58 -0.16 -1.02 -0.16 l-0.22 0 c-1.82 0 -2.84 1.16 -3.18 1.74 l0 7.34 c0 0.2 -0.1 0.3 -0.3 0.3 l-0.08 0 c-0.2 0 -0.3 -0.1 -0.3 -0.3 l0 -9.4 c0 -0.2 0.1 -0.3 0.3 -0.3 l0.08 0 c0.2 0 0.3 0.1 0.3 0.3 l0 1.34 c0.82 -1.2 2 -1.72 3.38 -1.72 c0.4 0 0.86 0.04 1.26 0.14 c0.18 0.06 0.24 0.18 0.18 0.34 z M91.91999999999999 13.92 c1.68 0 3.5 1.26 3.5 3.62 l0 1.14 c0 0.38 -0.26 0.62 -0.66 0.62 l-6.3 0 l0 1.26 c0 1.78 1.02 2.84 2.88 2.84 l0.58 0 c1.48 0 1.88 -0.68 2.56 -1.48 c0.14 -0.16 0.2 -0.22 0.4 -0.08 l0.14 0.1 c0.2 0.14 0.16 0.26 0.04 0.42 c-0.72 0.88 -1.44 1.74 -3.14 1.74 l-0.58 0 c-2.08 0 -3.6 -1.24 -3.6 -3.5 l0 -3.04 c0 -2.42 1.52 -3.64 3.6 -3.64 l0.58 0 z M94.69999999999999 18.6 l0 -0.9 c0 -2.06 -1.2 -3.08 -2.78 -3.08 l-0.58 0 c-1.86 0 -2.88 1.02 -2.88 3.06 l0 0.92 l6.24 0 z"></path></g>


<g id="SvgjsG1375" rel="mainfill" name="symbol" feature="symbol" xmlns:name="symbol_mainfill" fill="#bd93f9" transform="translate(77, 15) scale(1.3805555555555555)"><polyline points="40.5,0 58.5,18 54,22.5 40.5,9 27,22.5 22.5,18 40.5,0 "></polyline><polyline points="49.5,27 45,31.5 40.5,27 36,31.5 31.5,27 40.5,18 49.5,27 "></polyline><polyline points="40.5,45 45,40.5 49.5,45 40.5,54 31.5,45 36,40.5 40.5,45 "></polyline><polyline points="58.5,54 40.5,72 22.5,54 27,49.5 40.5,63 54,49.5 58.5,54 "></polyline><path d="M72,36l-9-9l-9,9l9,9L72,36 M45,36l18-18l18,18L63,54L45,36"></path><path d="M27,36l-9-9l-9,9l9,9L27,36 M0,36l18-18l18,18L18,54L0,36"></path></g></svg>