<svg width="320" height="240" xmlns="http://www.w3.org/2000/svg">
 <g>
  <title>Layer 1</title>
  <g transform="translate(-2.792616367340088,83.41419982910156) scale(3.324542760848999) " fill="#bd93f9" id="main_text">
   <path id="svg_1" d="m6.9,9.518924l3.1,-0.02q1.84,0 1.84,1.7l0,5.24q-2.38,0.84 -5.22,0.84q-1.44,0 -2.53,-0.5t-1.81,-1.42t-1.08,-2.22t-0.36,-2.88q0,-1.84 0.52,-3.2t1.38,-2.25t1.99,-1.32t2.37,-0.43q2.56,0 4.7,1.44q-0.06,0.58 -0.43,1.13t-0.81,0.83q-1.6,-1.14 -3.36,-1.14q-3.6,0 -3.6,4.9t3.58,4.9q1.1,0 2.12,-0.24l0,-1.78q0,-0.44 0.01,-0.77t0.03,-0.55l-1.36,0q-0.7,0 -0.99,-0.28t-0.29,-0.9q0,-0.52 0.2,-1.08zm10.44,-0.42l0,7.9q-0.3,0.06 -0.63,0.08t-0.67,0.02t-0.67,-0.02t-0.65,-0.08l0,-6.96q0,-1.1 -0.9,-1.1l-0.26,0q-0.12,-0.44 -0.12,-0.92q0,-0.44 0.12,-0.92q0.46,-0.04 0.85,-0.07t0.67,-0.03l0.34,0q0.9,0 1.41,0.56t0.51,1.54zm-3.02,-5.88q0.46,-0.26 1.32,-0.26q0.5,0 0.81,0.08t0.45,0.19t0.18,0.41t0.04,0.62q-0.06,1.02 -0.25,1.12t-1.25,0.2q-1.12,-0.04 -1.31,-0.3t-0.19,-1.02q0,-0.58 0.2,-1.04zm6.24,13.78l0,-8.08l-1.72,0.02q-0.06,-0.24 -0.08,-0.48t-0.02,-0.46t0.02,-0.45t0.08,-0.49l1.6,0.02q-0.12,-1.04 -0.12,-1.56q0,-0.72 0.24,-1.33t0.68,-1.05t1.03,-0.69t1.29,-0.25q1.42,0 2.88,0.52q0,1.1 -0.58,1.74q-1.12,-0.28 -1.64,-0.28q-1.4,0 -1.4,1.52q0,0.68 0.12,1.4l2.72,-0.04q0.04,0.26 0.07,0.49t0.03,0.45t-0.03,0.46t-0.07,0.48l-2.54,-0.04l0,8.1q-0.34,0.06 -0.65,0.08t-0.63,0.02t-0.63,-0.02t-0.65,-0.08zm13.78,0q-0.54,0.1 -1.33,0.1t-1.35,-0.1l0,-13.54l0.14,-0.12l8.24,0q0.12,0.46 0.12,1.08t-0.35,0.91t-1.11,0.29l-4.38,0l0.02,1.94l0,1.5l4.56,0q0.14,0.44 0.14,1.09t-0.14,1.13l-4.56,0l0,5.72zm7.04,-8.72q0.08,-0.36 0.33,-0.76t0.51,-0.6q1.62,0.2 2.22,1.8q0.76,-1.78 2.54,-1.78q0.66,0 1.2,0.14q0,1.4 -0.64,2.44q-0.3,-0.1 -0.92,-0.14q-1.16,0 -1.88,1.24l0,6.38q-0.6,0.1 -1.29,0.1t-1.33,-0.1l0,-6.66q0,-1.42 -0.74,-2.06zm11.22,0.82l0,7.9q-0.3,0.06 -0.63,0.08t-0.67,0.02t-0.67,-0.02t-0.65,-0.08l0,-6.96q0,-1.1 -0.9,-1.1l-0.26,0q-0.12,-0.44 -0.12,-0.92q0,-0.44 0.12,-0.92q0.46,-0.04 0.85,-0.07t0.67,-0.03l0.34,0q0.9,0 1.41,0.56t0.51,1.54zm-3.02,-5.88q0.46,-0.26 1.32,-0.26q0.5,0 0.81,0.08t0.45,0.19t0.18,0.41t0.04,0.62q-0.06,1.02 -0.25,1.12t-1.25,0.2q-1.12,-0.04 -1.31,-0.3t-0.19,-1.02q0,-0.58 0.2,-1.04zm13.28,9.66l-5.52,0q0.06,1.1 0.51,1.73t1.57,0.63q1.16,0 2.66,-0.68q0.58,0.6 0.74,1.58q-1.6,1.14 -3.84,1.14q-2.12,0 -3.21,-1.31t-1.09,-3.89q0,-1.2 0.28,-2.17t0.82,-1.66t1.32,-1.07t1.78,-0.38q1.02,0 1.8,0.31t1.32,0.88t0.81,1.35t0.27,1.7q0,0.5 -0.06,0.95t-0.16,0.89zm-3.86,-4.2q-1.56,0 -1.68,2.36l3.32,0l0,-0.24q0,-0.96 -0.4,-1.54t-1.24,-0.58zm14.52,1.64l0,4.36q0,1.28 0.42,1.9q-0.64,0.56 -1.54,0.56q-0.86,0 -1.18,-0.39t-0.32,-1.23l0,-4.66q0,-0.9 -0.22,-1.26t-0.82,-0.36q-1.06,0 -1.98,0.96l0,6.8q-0.3,0.06 -0.63,0.08t-0.67,0.02t-0.67,-0.02t-0.63,-0.08l0,-9.9l0.12,-0.14l1,0q1.12,0 1.4,1.2q1.46,-1.26 2.9,-1.26t2.13,0.93t0.69,2.49zm5.98,-3.44q0.96,0 2.04,0.54l0,-5l0.14,-0.14l1,0q0.78,0 1.1,0.36t0.32,1.26l0,10.24q0,1.22 0.56,1.66q-0.08,0.36 -0.33,0.76t-0.53,0.6q-1.3,-0.12 -1.88,-1.18q-1.18,1.3 -2.86,1.3q-0.86,0 -1.51,-0.37t-1.09,-1.04t-0.66,-1.63t-0.22,-2.16q0,-1.22 0.31,-2.18t0.84,-1.63t1.24,-1.03t1.53,-0.36zm0.24,8.26q1.04,0 1.8,-1l0,-4.68q-0.44,-0.28 -0.84,-0.43t-0.74,-0.15q-0.78,0 -1.25,0.82t-0.47,2.42q0,1.56 0.42,2.29t1.08,0.73zm6.26,1.16q0.02,-0.44 0.25,-0.97t0.53,-0.83q1.58,0.86 2.78,0.86q0.66,0 1.07,-0.26t0.41,-0.7q0,-0.7 -1.08,-1.12l-1.12,-0.42q-2.52,-0.92 -2.52,-2.94q0,-0.72 0.27,-1.29t0.76,-0.98t1.17,-0.63t1.52,-0.22q0.38,0 0.85,0.06t0.95,0.17t0.92,0.25t0.76,0.3q0,0.5 -0.2,1.04t-0.54,0.8q-1.58,-0.7 -2.74,-0.7q-0.52,0 -0.82,0.25t-0.3,0.65q0,0.62 1,0.98l1.22,0.44q1.32,0.46 1.96,1.26t0.64,1.86q0,1.42 -1.06,2.27t-3.04,0.85q-1.94,0 -3.64,-0.98z"/>
  </g>
  <g transform="translate(91,15) scale(1.5671844482421875) " fill="#bd93f9" id="SvgjsG1023">
   <g id="svg_2">
    <circle id="svg_3" r="2" cy="14.1" cx="12"/>
    <path id="svg_4" d="m18.3,14.1c0,1.1 0.9,2 2,2c1.1,0 2,-0.9 2,-2c0,-1.1 -0.9,-2 -2,-2c-1.1,0.1 -2,0.9 -2,2z"/>
    <path id="svg_5" d="m15.4,25.2l-6.2,7.1l0.5,-7l-4.1,0l-0.1,0c-1.2,0 -2.3,-0.5 -3.1,-1.4c-0.7,-0.7 -1,-1.7 -1,-2.8l0,-12.2c0,-2 1.5,-3.7 3.5,-4l28,-3.4c0.2,0 0.4,0 0.6,0c1.9,0 3.6,1.4 4,3.2c0.2,0 0.5,0 0.7,0c0.3,0 0.5,0 0.8,0c-0.4,-2.6 -2.7,-4.7 -5.5,-4.7c-0.3,0 -0.6,0 -0.8,0.1l-28,3.4c-2.7,0.4 -4.7,2.7 -4.7,5.5l0,12.2c0,1.4 0.5,2.8 1.4,3.8c1.1,1.2 2.5,1.9 4.1,1.9l2.7,0l-0.4,6.2c-0.1,0.3 0,0.6 0.2,0.9c0.2,0.3 0.6,0.5 0.9,0.5c0.2,0 0.5,-0.1 0.7,-0.2l0.1,0l6.5,-7.4l15,-0.2l0,-1.7l-0.2,0l-15.6,0.2z"/>
    <circle id="svg_6" r="2" cy="14.2" cx="28.6"/>
    <path id="svg_7" d="m66.7,20.3c-1.4,0 -2.5,1.1 -2.5,2.5c0,1.4 1.1,2.5 2.5,2.5c1.4,0 2.5,-1.1 2.5,-2.5c0,-1.4 -1.1,-2.5 -2.5,-2.5z"/>
    <path id="svg_8" d="m45.6,20.3c-1.4,0 -2.5,1.1 -2.5,2.5c0,1.4 1.1,2.5 2.5,2.5c1.4,0 2.5,-1.1 2.5,-2.5c0,-1.4 -1.1,-2.5 -2.5,-2.5z"/>
    <path id="svg_9" d="m75,9.3l-35.7,-4.3c-0.3,-0.1 -0.7,-0.1 -1.1,-0.1c-3.8,0 -6.8,3.1 -6.8,6.8l0,19.6c0,3.7 3,6.8 6.8,6.8l24.1,0.4l7.9,8.3l0.1,0c0.2,0.2 0.5,0.2 0.7,0.2c0.4,0 0.8,-0.2 1,-0.5c0.2,-0.3 0.3,-0.7 0.2,-1l-0.2,-6.9l1.9,0l0.1,0c2,0 3.8,-0.8 5.1,-2.3c1.1,-1.2 1.7,-2.9 1.7,-4.7l0,-15.5c0,-3.4 -2.4,-6.2 -5.8,-6.8zm4.4,22.3c0,1.4 -0.5,2.7 -1.4,3.7c-1,1.2 -2.5,1.8 -4.1,1.8l-0.1,0l-3.4,-0.1l0.2,8.1l-7.8,-8.2l-24.7,-0.3c-2.9,0 -5.3,-2.5 -5.3,-5.4l0,-19.4c0,-3 2.4,-5.4 5.4,-5.4c0.4,0 0.6,0 0.9,0.1l35.7,4.3c2.7,0.4 4.6,2.7 4.6,5.3l0,15.5z"/>
    <path id="svg_10" d="m56.1,20.3c-1.4,0 -2.5,1.1 -2.5,2.5c0,1.4 1.1,2.5 2.5,2.5c1.4,0 2.5,-1.1 2.5,-2.5c0,-1.4 -1.1,-2.5 -2.5,-2.5z"/>
   </g>
  </g>
 </g>
</svg>