<svg width="115" height="105" xmlns="http://www.w3.org/2000/svg" xmlns:svg="http://www.w3.org/2000/svg">
 <g>
  <title>Layer 1</title>
  <g id="SvgjsG1375" fill="#bd93f9" transform="translate(77,15) scale(1.380555510520935) ">
   <polyline points="-13.825958251953125,-9.416499376296997 4.174043655395508,8.583500385284424 -0.325958251953125,13.083500385284424 -13.825958251953125,-0.41649961471557617 -27.325958251953125,13.083500385284424 -31.825958251953125,8.583500385284424 -13.825958251953125,-9.416499376296997 " id="svg_1"/>
   <polyline points="-4.825958251953125,17.583500385284424 -9.325958251953125,22.083500385284424 -13.825958251953125,17.583500385284424 -18.325958251953125,22.083500385284424 -22.825958251953125,17.583500385284424 -13.825958251953125,8.583500385284424 -4.825958251953125,17.583500385284424 " id="svg_2"/>
   <polyline points="-13.825958251953125,35.583500385284424 -9.325958251953125,31.083500385284424 -4.825958251953125,35.583500385284424 -13.825958251953125,44.583500385284424 -22.825958251953125,35.583500385284424 -18.325958251953125,31.083500385284424 -13.825958251953125,35.583500385284424 " id="svg_3"/>
   <polyline points="4.174043655395508,44.583500385284424 -13.825958251953125,62.583500385284424 -31.825958251953125,44.583500385284424 -27.325958251953125,40.083500385284424 -13.825958251953125,53.583500385284424 -0.325958251953125,40.083500385284424 4.174043655395508,44.583500385284424 " id="svg_4"/>
   <path d="m17.67404,26.58351l-9,-9l-9,9l9,9l9,-9m-27,0l18,-18l18,18l-18,18l-18,-18" id="svg_5"/>
   <path d="m-27.32596,26.58351l-9,-9l-9,9l9,9l9,-9m-27,0l18,-18l18,18l-18,18l-18,-18" id="svg_6"/>
  </g>
 </g>
</svg>