<svg width="200" height="125" xmlns="http://www.w3.org/2000/svg"><defs id="SvgjsDefs1373"></defs>

<g id="SvgjsG1375" rel="mainfill" name="symbol" feature="symbol" xmlns:name="symbol_mainfill" fill="#bd93f9" transform="translate(77, 15) scale(1.3805555555555555)"><polyline points="40.5,0 58.5,18 54,22.5 40.5,9 27,22.5 22.5,18 40.5,0 "></polyline><polyline points="49.5,27 45,31.5 40.5,27 36,31.5 31.5,27 40.5,18 49.5,27 "></polyline><polyline points="40.5,45 45,40.5 49.5,45 40.5,54 31.5,45 36,40.5 40.5,45 "></polyline><polyline points="58.5,54 40.5,72 22.5,54 27,49.5 40.5,63 54,49.5 58.5,54 "></polyline><path d="M72,36l-9-9l-9,9l9,9L72,36 M45,36l18-18l18,18L63,54L45,36"></path><path d="M27,36l-9-9l-9,9l9,9L27,36 M0,36l18-18l18,18L18,54L0,36"></path></g></svg>